<?xml version="1.0" encoding="utf-8"?>
<!-- Generator: Adobe Illustrator 24.2.3, SVG Export Plug-In . SVG Version: 6.00 Build 0)  -->
<svg version="1.1" id="Ebene_1" xmlns="http://www.w3.org/2000/svg" xmlns:xlink="http://www.w3.org/1999/xlink" x="0px" y="0px"
	 viewBox="0 0 109.23 103" style="enable-background:new 0 0 109.23 103;" xml:space="preserve">
<style type="text/css">
	.st0{clip-path:url(#SVGID_2_);fill:#4B7C2F;}
	.st1{clip-path:url(#SVGID_2_);fill:#575756;}
	.st2{clip-path:url(#SVGID_2_);fill:#B2B2B2;}
</style>
<g>
	<defs>
		<rect id="SVGID_1_" x="2.4" y="38.01" width="104.31" height="30.15"/>
	</defs>
	<clipPath id="SVGID_2_">
		<use xlink:href="#SVGID_1_"  style="overflow:visible;"/>
	</clipPath>
	<path class="st0" d="M103.64,63.09h3.08v-1.1h-3.08c-1.7,0-3.08,1.38-3.08,3.08s1.38,3.08,3.08,3.08h3.08v-3.37h-3.08v1.1h1.98
		v1.18h-1.98c-1.09,0-1.98-0.89-1.98-1.98S102.55,63.09,103.64,63.09 M98.58,61.99v3.92l-3.95-3.05l-1.1-0.84v6.13h1.1v-3.89
		l3.95,3.05l1.1,0.84V62L98.58,61.99z M91.55,61.99v3.08c0,1.09-0.89,1.98-1.98,1.98c-1.09,0-1.98-0.89-1.98-1.98v-3.08h-1.1v3.08
		c0,1.7,1.38,3.08,3.08,3.08s3.08-1.38,3.08-3.08v-3.08H91.55z M79.47,62v1.1h2.52v5.05h1.1V63.1h2.52V62H79.47z M77.01,67.05
		c-0.39-0.05-0.69-0.36-0.75-0.75V62h-1.1v4.19c0,0.31,0.07,0.6,0.2,0.86c0.18,0.39,0.5,0.7,0.89,0.9c0.26,0.13,0.55,0.2,0.86,0.2
		h3.12v-1.1L77.01,67.05z M74.3,67.05l-2.57-5.05l-2.57,5.05l-0.56,1.1h1.23l0.56-1.1l1.34-2.64l1.34,2.64l0.56,1.1h1.23L74.3,67.05
		z M63.65,62v1.1h2.52v5.05h1.1V63.1h2.52V62H63.65z M63.06,63.69v-0.04c0-0.91-0.75-1.66-1.66-1.66h-2.5
		c-0.91,0-1.65,0.75-1.65,1.66v0.04c0,0.35,0.11,0.68,0.29,0.94c0.06,0.1,0.13,0.18,0.21,0.26c0.3,0.29,0.7,0.47,1.15,0.47h2.21
		c0.47,0,0.85,0.38,0.85,0.84s-0.39,0.84-0.85,0.84H59.2c-0.47,0-0.84-0.38-0.84-0.84h-1.1c0,1.07,0.87,1.94,1.94,1.94h1.92
		c1.07,0,1.94-0.87,1.94-1.94c0-0.47-0.17-0.9-0.44-1.23c-0.03-0.03-0.04-0.05-0.07-0.08c-0.35-0.39-0.86-0.63-1.43-0.63h-2.21
		c-0.31,0-0.56-0.25-0.56-0.56v-0.04c0-0.31,0.25-0.56,0.56-0.56h2.5c0.31,0,0.56,0.25,0.56,0.56v0.04L63.06,63.69z M51.88,63.09
		h4.49v-1.1h-4.49c-0.91,0-1.65,0.75-1.65,1.66v2.83c0,0.91,0.74,1.66,1.65,1.66h4.49v-1.1h-4.49c-0.31,0-0.56-0.25-0.56-0.56v-1.16
		h3.95v-1.1h-3.95v-0.57C51.31,63.35,51.57,63.09,51.88,63.09 M46.26,63.09h3.08v-1.1h-3.08c-1.7,0-3.08,1.38-3.08,3.08
		s1.38,3.08,3.08,3.08h3.08v-3.37h-3.08v1.1h1.98v1.18h-1.98c-1.09,0-1.98-0.89-1.98-1.98S45.17,63.09,46.26,63.09 M41.21,61.99
		v3.92l-3.95-3.05l-1.1-0.84v6.13h1.1v-3.89l3.95,3.05l1.1,0.84V62L41.21,61.99z M30.79,63.09h4.49v-1.1h-4.49
		c-0.91,0-1.65,0.75-1.65,1.66v2.83c0,0.91,0.74,1.66,1.65,1.66h4.49v-1.1h-4.49c-0.31,0-0.56-0.25-0.56-0.56v-1.16h3.95v-1.1h-3.95
		v-0.57C30.22,63.35,30.48,63.09,30.79,63.09 M22.1,62v1.1h2.52v5.05h1.1V63.1h2.52V62H22.1z M17.06,64.24v-1.13h2.79
		c0.19,0,0.33,0.09,0.4,0.16c0.06,0.06,0.17,0.2,0.17,0.4c0,0.22-0.13,0.42-0.33,0.51c-0.07,0.04-0.15,0.05-0.23,0.05L17.06,64.24z
		 M20.06,65.31L20.06,65.31c0.17-0.02,0.33-0.06,0.47-0.13c0.57-0.26,0.97-0.84,0.97-1.51c0-0.46-0.18-0.87-0.48-1.17
		c-0.3-0.3-0.71-0.48-1.17-0.48h-3.88v6.15h1.1v-2.83h1.1c0.4,0,0.74,0.21,0.93,0.53l0.03,0.05l0.59,1.15l0.56,1.1h1.23l-0.56-1.1
		L20.06,65.31z M14.88,67.05l-2.57-5.05l-2.57,5.05l-0.56,1.1h1.23l0.56-1.1l1.34-2.64l1.34,2.64l0.56,1.1h1.23L14.88,67.05z
		 M5.57,63.09h3.08v-1.1H5.57c-1.7,0-3.08,1.38-3.08,3.08s1.38,3.08,3.08,3.08h3.08v-3.37H5.57v1.1h1.98v1.18H5.57
		c-1.09,0-1.98-0.89-1.98-1.98S4.48,63.09,5.57,63.09"/>
	<path class="st1" d="M47.95,60.2v-0.02h-0.01L47.95,60.2z M41.8,60.2l0.02-0.02H41.8V60.2z M46.57,54.02l-1.69,2.19l-1.69-2.19
		h-1.39l2.38,3.08l0.15,0.18v2.88h1.1v-2.9l0.13-0.17l2.38-3.08H46.57z M38.62,59.09h-1.98v-3.95h1.98c1.09,0,1.98,0.89,1.98,1.98
		S39.71,59.09,38.62,59.09 M38.63,54.03h-3.08v6.15h3.08c0.84,0,1.61-0.34,2.16-0.91c0.06-0.06,0.12-0.12,0.18-0.18
		c0.46-0.54,0.73-1.23,0.73-1.99C41.69,55.41,40.31,54.04,38.63,54.03L38.63,54.03z M34.46,59.08l-2.57-5.05l-2.57,5.05l-0.56,1.1
		h1.23l0.56-1.1l1.34-2.64l1.34,2.64l0.56,1.1h1.23L34.46,59.08z M23.77,56.28v-1.13h2.79c0.19,0,0.33,0.09,0.4,0.16
		c0.06,0.06,0.17,0.2,0.17,0.4c0,0.22-0.13,0.42-0.33,0.51c-0.07,0.04-0.15,0.05-0.23,0.05L23.77,56.28z M26.77,57.34L26.77,57.34
		c0.17-0.02,0.33-0.06,0.47-0.13c0.57-0.26,0.97-0.84,0.97-1.51c0-0.46-0.18-0.87-0.48-1.17c-0.3-0.3-0.71-0.48-1.17-0.48h-3.88
		v6.15h1.1v-2.83h1.1c0.4,0,0.74,0.21,0.93,0.53l0.03,0.05l0.59,1.15l0.56,1.1h1.23l-0.56-1.1L26.77,57.34z M20.71,54.03v3.92
		l-3.95-3.05l-1.1-0.84v6.13h1.1V56.3l3.95,3.05l1.1,0.84v-6.15L20.71,54.03z M11.91,59.08c-1.09,0-1.98-0.89-1.98-1.98
		c0-1.09,0.89-1.98,1.98-1.98s1.98,0.89,1.98,1.98C13.89,58.19,13,59.08,11.91,59.08 M11.91,54.03c-1.7,0-3.08,1.38-3.08,3.08
		c0,1.7,1.38,3.08,3.08,3.08s3.08-1.38,3.08-3.08C14.99,55.41,13.61,54.03,11.91,54.03 M5.48,55.13h3.08v-1.1H5.48
		c-1.7,0-3.08,1.38-3.08,3.08c0,1.7,1.38,3.08,3.08,3.08h3.08v-1.1H5.48c-1.09,0-1.98-0.89-1.98-1.98
		C3.5,56.01,4.39,55.13,5.48,55.13"/>
	<path class="st2" d="M67.36,60.06H51.51c-0.49,0-0.88-0.39-0.88-0.88v-4.62c0-0.49,0.39-0.88,0.88-0.88h15.85
		c0.49,0,0.88,0.39,0.88,0.88v4.62C68.24,59.66,67.84,60.06,67.36,60.06"/>
	<path class="st2" d="M59.38,52.18H43.53c-0.49,0-0.88-0.39-0.88-0.88v-4.62c0-0.49,0.39-0.88,0.88-0.88h15.85
		c0.49,0,0.88,0.39,0.88,0.88v4.62C60.26,51.79,59.86,52.18,59.38,52.18"/>
	<path class="st2" d="M50.33,44.4H34.48c-0.49,0-0.88-0.39-0.88-0.88v-4.62c0-0.49,0.39-0.88,0.88-0.88h15.85
		c0.49,0,0.88,0.39,0.88,0.88v4.62C51.21,44,50.81,44.4,50.33,44.4"/>
	<path class="st2" d="M86.49,60.06H70.65c-0.49,0-0.88-0.39-0.88-0.88v-4.62c0-0.49,0.39-0.88,0.88-0.88h15.85
		c0.49,0,0.88,0.39,0.88,0.88v4.62C87.38,59.66,86.98,60.06,86.49,60.06"/>
	<path class="st2" d="M78.52,52.18H62.67c-0.49,0-0.88-0.39-0.88-0.88v-4.62c0-0.49,0.39-0.88,0.88-0.88h15.85
		c0.49,0,0.88,0.39,0.88,0.88v4.62C79.4,51.79,79,52.18,78.52,52.18"/>
	<path class="st2" d="M69.47,44.4H53.62c-0.49,0-0.88-0.39-0.88-0.88v-4.62c0-0.49,0.39-0.88,0.88-0.88h15.85
		c0.49,0,0.88,0.39,0.88,0.88v4.62C70.35,44,69.95,44.4,69.47,44.4"/>
	<path class="st2" d="M105.63,60.06H89.79c-0.49,0-0.88-0.39-0.88-0.88v-4.62c0-0.49,0.39-0.88,0.88-0.88h15.85
		c0.49,0,0.88,0.39,0.88,0.88v4.62C106.52,59.66,106.12,60.06,105.63,60.06"/>
	<path class="st2" d="M97.66,52.18H81.81c-0.49,0-0.88-0.39-0.88-0.88v-4.62c0-0.49,0.39-0.88,0.88-0.88h15.85
		c0.49,0,0.88,0.39,0.88,0.88v4.62C98.54,51.79,98.14,52.18,97.66,52.18"/>
	<path class="st2" d="M88.61,44.4H72.76c-0.49,0-0.88-0.39-0.88-0.88v-4.62c0-0.49,0.39-0.88,0.88-0.88h15.85
		c0.49,0,0.88,0.39,0.88,0.88v4.62C89.49,44,89.09,44.4,88.61,44.4"/>
</g>
</svg>
